<mxfile host="app.diagrams.net" modified="2023-10-10T03:51:25.009Z" agent="Mozilla/5.0 (Macintosh; Intel Mac OS X 10_15_7) AppleWebKit/605.1.15 (KHTML, like Gecko) Version/16.6 Safari/605.1.15" version="21.8.2" etag="APV8NwyYDkzMPyKU1Hnj" type="github">
  <diagram name="第 1 页" id="sIZ0GRrX90LJB6gORD5J">
    <mxGraphModel>
      <root>
        <mxCell id="0" />
        <mxCell id="1" parent="0" />
      </root>
    </mxGraphModel>
  </diagram>
</mxfile>
